<svg width="360" height="168" xmlns="http://www.w3.org/2000/svg" version="1.1">
 <!-- Generator: Adobe Illustrator 30.0.0, SVG Export Plug-In . SVG Version: 2.1.1 Build 123)  -->

 <g>
  <title>Layer 1</title>
  <g id="Generative_Object">
   <path id="svg_1" fill="#3477ae" d="m5,92.6l-5,2.3c24,-2.6 48.5,-0.5 71.6,6.2c35.6,10.3 69.6,25.6 103.6,40.1c30.7,13.1 63.9,26.8 98,25.1c30.8,-1.5 62.8,-15.9 77.7,-44c-3.2,4.2 -7.8,8 -12,11.1c-0.6,1.6 -2.7,3.2 -4.1,4.2c-59.1,46.4 -142.2,-2.4 -201.2,-24.1c-34.8,-12.8 -73.8,-24.1 -111.4,-22.5c-5.7,0.3 -11.4,1.6 -17.1,1.6l-0.1,0z" class="st8"/>
   <path id="svg_2" fill="#5498ca" d="m14.5,89.7c-3.2,0.9 -6.3,1.8 -9.4,2.9c5.7,0 11.4,-1.4 17.1,-1.6c37.5,-1.7 76.6,9.7 111.4,22.5c59,21.7 142.1,70.5 201.2,24.1c1.3,-1.1 3.4,-2.6 4.1,-4.2c-3.8,2.8 -7.9,5 -11.9,7.5c2.8,-3.3 6.9,-5.8 9.6,-9.1c-31.6,21.5 -63,19.9 -99.2,12.4c-34.3,-7.1 -66.3,-22.1 -99.3,-33.2c-39.6,-13.4 -81.3,-24.7 -123.6,-21.2l0,-0.1z" class="st47"/>
   <path id="svg_3" fill="#bcdbee" d="m236.6,3.4c2.4,-0.3 8,-0.6 10.6,-0.7c27.9,-1 58.3,8.3 79.9,26.2c-0.3,0.4 -8.5,-0.2 -9.4,-0.5c-6.7,7.7 -12.4,-3.4 -2.9,-2c1.4,-3.5 -6.7,-4.5 -9,-4.2s-8.7,5.5 -9.1,5.2c-1.6,-1.3 3.4,-6.3 4.7,-7c-5.2,-2.3 -12.4,-1.2 -17.4,1.1s-6.9,3.9 -7.2,4.2c-0.5,0.8 0.4,1.2 0.2,1.5c-1.4,2 -6.1,7.9 -8.1,3.3s1.6,-5.4 2,-8c-1.8,0.8 -7.5,2.1 -7.8,-1c-5.5,-3.2 -14.4,2.1 -17.9,6.7s-3.9,7.9 -4.4,8c-3.2,0.7 -1.1,-8.4 -0.5,-9.8c-5,2.1 -9,-0.4 -4.6,-5.5l-6.2,2.3c-0.6,1.1 -2.1,4.4 -3.4,4.6s-1.6,-1.1 -2.3,-1.3s-1.4,0.2 -1.8,0c0.4,9.2 7.5,0.2 9,0c2.3,-0.3 1.1,1.5 1.5,2.4c0.6,1.8 4.3,-1.1 4.6,0.3c-1.5,1.8 -5.7,11.3 -0.8,12.5s7.1,-7.9 9.6,-10.9c2.3,-2.8 8.1,-6.4 11.9,-5.4s2.2,2.9 2.6,2.9s5.3,-4.6 7,-2.8c-7.1,5 -9.2,15.2 2.8,9c3.8,-2 7.6,-6.9 11.1,-8.5s8,-1.4 11.7,-2.9l-3.3,4.9c-0.3,0.2 -1.7,-0.9 -2,-1s-3.5,-0.4 -2.8,0.7c0.9,0 4,-0.1 4.2,0.8l-1,2.8c2,-1.1 0,1.2 1.8,2.3c3.8,2.3 8.3,-6.8 11.4,-8.5s8,-2.5 8,0.2s-7.7,5.9 -2.4,8.3s11.8,-3.3 17.6,-2s12.6,8.8 15.1,11.4l2.3,-1.3c-23.9,-29.8 -67.7,-45.6 -105.2,-38.4l-0.1,0.1z" class="st52"/>
   <path id="svg_4" fill="#10527e" d="m249.3,44.4c0,0.8 3.2,3.7 3.9,5.4s1.5,5.5 0.8,6c-4.5,-7.7 -14.2,-9.8 -22.5,-8.5c-5.8,0.9 -10,6.8 -10.9,12.4c10.9,-10.9 23.8,-8 31.6,4.6s5.6,10.5 4.2,17.3l0,0.3c0.5,-1.7 1.7,-3.6 2,-5.7c0.6,-5.4 -0.5,-10.6 -2.8,-15.5c19.7,27.5 -10,53 -36.6,55.8c13.6,0.3 27.5,-4.8 37.1,-14.5c4.3,-5.4 7,-8.1 9.1,-15c5.1,-16.4 -0.8,-34.2 -16,-42.7l0.1,0.1z" class="st23"/>
   <path id="svg_5" fill="#8bbee2" d="m207.3,18c-1.7,1.1 -6.9,7.9 -7.2,9.6c-0.6,3.6 0.9,5 4.2,3.4s0.8,-0.8 1.6,-1.3c2.4,-1.3 9.3,-6.3 12.2,-3.6s-0.3,0.9 -0.2,1.3c0.4,2.1 0.3,4.8 0.7,6.4c1.3,5 6.4,0.9 8.5,-0.2c5.3,-2.6 5.8,0.7 2.9,4.6c2.6,10.5 -7.3,4.6 -10.1,12.5s-0.8,6.5 -0.3,9.4c0.4,0.4 0.3,-0.5 0.3,-0.5c-0.2,-3.9 -0.3,-9.9 3.4,-12.4s6.9,-0.7 7.5,-4.6c2.5,4 8.2,4.8 12.4,3.3s4.1,-10.8 9.4,-14s5.2,-1.9 6.2,-1.6c2.8,0.6 -0.4,3.4 -0.5,3.9c-0.3,1.1 0.2,3 0,4.2c2,1.1 3.7,2.8 6,3.3c8.6,1.8 8.6,-2 12.5,-7.5s3.5,-6.1 7.8,-6.5c-0.7,-1.1 2.6,-0.7 2.8,-0.7c0.3,0 1.6,1.1 2,1l3.3,-4.9c-3.7,1.5 -8.1,1.3 -11.7,2.9s-7.3,6.5 -11.1,8.5c-12,6.3 -9.9,-4 -2.8,-9c-1.7,-1.9 -6.6,2.8 -7,2.8s-1.3,-2.6 -2.6,-2.9c-3.8,-1 -9.5,2.5 -11.9,5.4c-2.5,3 -4.7,12.1 -9.6,10.9s-0.7,-10.7 0.8,-12.5c-0.3,-1.5 -3.9,1.5 -4.6,-0.3s0.8,-2.7 -1.5,-2.4s-8.6,9.2 -9,0c-2.5,-1 -1.9,-2.4 -0.7,-4.6c-3.9,-3.5 -18.6,7 -12,-4.7c-0.1,-0.3 -1.8,0.7 -2,0.8l0.3,0z" class="st30"/>
   <path id="svg_6" fill="#448bc2" d="m54.9,81.5c-3.2,0.2 -6.3,0.9 -9.4,1.3c13.2,0.8 26.4,0.7 39.6,2.3c35.3,4.1 68.3,19 101.1,31.3l2,-4.2c-3.4,-1.2 -6.7,-3 -10.1,-4.2c-40,-14 -79.7,-28.4 -123.1,-26.4l-0.1,-0.1z" class="st34"/>
   <path id="svg_7" fill="#6eaad5" d="m214.8,32.7c1.2,1.9 0.4,4.6 2,6.7s3.5,1.4 5.5,2.3c-5.2,3.4 -6,8.1 -7.8,13.5c0.1,0 0.8,-0.2 1,-0.5c0.4,5.8 -3.9,7.9 -8.3,4.1c-1.8,0 3,4.3 3.3,4.6c2.5,1.8 6.3,3.6 9.3,2c0.2,-0.2 0.9,-0.3 1,-0.5c0.3,-1.1 -0.3,-3 0,-4.7c-0.3,0 -0.4,-0.4 -0.7,-0.3s0.1,0.9 -0.3,0.5c-0.5,-3 -0.7,-6.5 0.3,-9.4c2.8,-7.9 12.7,-2.1 10.1,-12.5c-0.5,-1.9 -1.2,-3.4 -2.9,-4.6c-2.1,1 -7.2,5.2 -8.5,0.2s-0.2,-4.2 -0.7,-6.4c-2.4,0.8 -2.6,3.2 -3.3,5.2l0,-0.2z" class="st48"/>
   <path id="svg_8" fill="#d1e7f4" d="m206,29.7c1.7,0.2 -0.5,2.1 -1,2.6c-2.6,3.1 -8,5.3 -9.8,9.6s1.3,7.3 4.9,4.1s1.7,-10.7 7,-13.4s5,-1.7 5.4,-0.5s-3.6,7.8 -3.9,8.1c-3.7,3.7 -4.8,-3.9 -6.2,2.4c1.9,1.6 0.3,5.8 2.6,7.8c-0.3,-3 1.3,-6.5 3.1,-8.8c0.1,3.3 3.2,6.8 3.4,9.8c2.9,-0.7 4.9,-5.2 4.9,-7.8c-0.4,1.1 -3.9,4.8 -4.6,2.4s2.3,-4.3 2.9,-6c-1.6,0 -1.8,1.8 -3.3,1.8c1.9,-2.8 2.2,-6.2 3.3,-9.3s0.9,-4.4 3.3,-5.2c0,-0.4 1.3,-0.2 0.2,-1.3c-2.9,-2.8 -9.8,2.2 -12.2,3.6l0,0.1z" class="st12"/>
   <path id="svg_9" fill="#13355a" d="m220,59.7c0.3,0 0.4,0.4 0.7,0.3c0,-0.1 0,-0.2 0,-0.3c0.9,-5.6 5.2,-11.5 10.9,-12.4c8.3,-1.3 18,0.7 22.5,8.5c0.7,-0.5 -0.4,-5.1 -0.8,-6c-0.7,-1.7 -4,-4.5 -3.9,-5.4c0.1,-1.3 1,-1.7 1.3,-2.3c0.5,-1 1,-2 1.6,-2.9s1,-1.7 2,-2.6s2.5,-2.6 4.2,-2.3c0.1,-0.5 3.2,-3.3 0.5,-3.9s-5.2,1 -6.2,1.6c-5.3,3.2 -4.1,12 -9.4,14s-9.9,0.7 -12.4,-3.3c-0.6,3.9 -5.1,3 -7.5,4.6c-3.7,2.4 -3.6,8.5 -3.4,12.4l-0.1,0z" class="st33"/>
   <path id="svg_10" fill="#579bcd" d="m221.6,103c11.3,-0.4 23.1,-3.7 30.3,-13.2s3,-5.5 4.6,-8.3c1.4,-6.7 -0.8,-11.8 -4.2,-17.3c7.3,20.7 -10.8,37.7 -30.6,38.8l-0.1,0z" class="st43"/>
   <path id="svg_11" fill="#b5d7ec" d="m207.3,18c0.1,0 1.8,-1.1 2,-0.8c-6.5,11.7 8.2,1.2 12,4.7c0,0 0.4,-0.3 0.7,-0.7c-2.2,-3.1 -8.2,0.6 -9.8,-4.1c0.8,-4 5.4,-5.2 7.8,-8c0,0 -0.9,-0.1 -1.8,0.3c-4,2.1 -7.7,5.3 -10.9,8.5l0,0.1z" class="st32"/>
   <path id="svg_12" fill="#fff" d="m200.1,46c1,-0.1 1.4,0.3 1.3,1.3l0.3,0c0,-1.4 0.4,-3.2 0.7,-4.6c1.4,-6.3 2.5,1.3 6.2,-2.4s4,-7.7 3.9,-8.1c-0.4,-1.2 -4.6,0 -5.4,0.5c-5.3,2.7 -4,10.7 -7,13.4l0,-0.1z" class="st9"/>
   <path id="svg_13" fill="#89bce0" d="m203.4,54.2c0.2,0.7 0.4,1.3 0.7,2s0.3,1.1 0.7,1.6c2.2,3.7 11.2,12.1 15,7.5c-3,1.7 -6.8,-0.1 -9.3,-2s-5,-4.6 -3.3,-4.6c4.4,3.9 8.7,1.7 8.3,-4.1c-0.2,0.3 -0.9,0.4 -1,0.5c-2.5,1.7 -2.4,4.8 -7.3,2s-2.8,-4.1 -3.7,-2.9l-0.1,0z" class="st22"/>
   <path id="svg_14" fill="#e5f2fa" d="m198.2,54.5c0.5,1.3 0.4,4.6 2.8,3.9s1.1,-6 1.1,-7.5s-0.4,-2.5 -0.3,-3.6l-0.3,0c-1.3,2.1 -2.9,4.6 -3.3,7.2z" class="st41"/>
   <path id="svg_15" fill="#c9e2f2" d="m202.1,50.9c0,1.4 0.7,6.9 -1.1,7.5s-2.3,-2.6 -2.8,-3.9c-1,6.4 3,8.5 5.2,3.3s-0.4,-1.4 0.7,-1.6c-0.3,-0.7 -0.5,-1.3 -0.7,-2c-0.3,-1.1 -0.2,-3.1 -1.3,-3.3z" class="st6"/>
   <path id="svg_16" fill="#fff" d="m206,29.7c-0.8,0.5 -1.5,1.3 -1.6,1.3c0.9,-0.2 0.6,0.6 0.7,1.3c0.4,-0.5 2.7,-2.4 1,-2.6l-0.1,0z" class="st9"/>
   <path id="svg_17" fill="#fff" d="m203.4,57.8l1.3,0c-0.3,-0.6 -0.4,-1.1 -0.7,-1.6c-1,0.2 -0.5,1.2 -0.7,1.6l0.1,0z" class="st9"/>
   <path id="svg_18" fill="#10527e" d="m291.6,37.9c7.1,4.8 14.8,7.9 21.2,14.2c19,18.8 19.6,47.4 2.9,68.1c-8.1,10 -19.4,15.9 -31.6,19.5c12.3,0.1 24.3,-1.8 36.1,-4.7c0.5,-0.1 0.3,-0.3 0.3,-0.3c8,-12.2 13,-26 12,-40.9s-2.7,-11 -2.6,-13s0,-1.2 1.3,-1.1c-3,-9.2 -8.4,-19.2 -14.7,-26.5c-2.3,-2.7 -7.8,-6.8 -9.3,-9s-0.3,-0.3 -0.2,-1.3c-4.1,-2.2 -7.8,-4.8 -12.7,-5.2s-2,0.7 -2.9,0.3l0.2,-0.1z" class="st23"/>
   <path id="svg_19" fill="#14365c" d="m309.5,37.2c12.5,7.9 22.5,16.6 29.6,29.8c10.7,19.6 12.3,39.4 -1.8,57.8l3.1,-8.1l-3.3,-1c-1.3,4.3 -3.7,9.7 -6.5,13.2c7.6,-15.9 6,-33 0.7,-49.3c-1.4,0 -1.3,-0.2 -1.3,1.1c0,2.1 2.4,9.7 2.6,13c1,14.8 -4.1,28.7 -12,40.9c5.3,-1.7 10.6,-3.2 15.3,-6.2c6.9,-4.4 10.7,-9.8 13.7,-17.3l-0.5,-1.6l-0.8,1.1c0.4,-1 0.5,-2.4 0.7,-3.4c2.6,-22.2 -6.7,-52.5 -25.4,-66.1c-3.2,-2.3 -6.5,-3.3 -10.1,-4.9c-1.3,0.2 -2.1,1 -3.9,1l-0.1,0z" class="st38"/>
   <path id="svg_20" fill="#84b8de" d="m288,31.4c-0.1,0 -0.7,-0.2 -0.7,0.3c0,1.6 -0.8,1.8 0.3,3.9s2.8,1.6 3.9,2.3c0.9,0.3 2.3,-0.4 2.9,-0.3c2.2,-0.5 8.4,-12 10.4,-9.6c-1.1,1.9 -2.4,3.8 -1.3,6c0.9,0.5 1.8,2.3 3.6,2.9s1.3,0.3 2.3,0.3c1.8,0 2.6,-0.8 3.9,-1c13.8,-2.1 22,4.6 29.6,15.6l2,-1.6c-1.6,-2.4 -3.5,-5 -5.5,-7.2s-12,-10.6 -15.1,-11.4c-5.7,-1.4 -15.3,3 -17.6,2c-5.3,-2.4 2.4,-7.8 2.4,-8.3c0,-2.7 -6.3,-1.1 -8,-0.2c-3.1,1.7 -7.6,10.8 -11.4,8.5s0.2,-3.4 -1.8,-2.3l0.1,0.1z" class="st20"/>
   <path id="svg_21" fill="#5a9dcf" d="m343.1,51.9c11.7,16.8 14.1,40.3 6.5,59.3c-3,7.5 -6.8,12.9 -13.7,17.3c2.3,0 6.3,-2.8 8,-4.2c20.7,-17.4 14.6,-53.8 1.1,-73.9l-2,1.6l0.1,-0.1z" class="st27"/>
   <path id="svg_22" fill="#2f72ac" d="m188.1,112.1l-2,4.2c4.2,1.6 8.4,3.3 12.7,4.9l1.6,-4.9c-4,-1.2 -8.4,-2.8 -12.4,-4.2l0.1,0z" class="st19"/>
   <g id="svg_23">
    <path id="svg_24" fill="#85b7dc" d="m339.5,43.1c2,2.1 3.9,4.7 5.5,7.2c13.4,20.1 19.6,56.5 -1.1,73.9c-1.7,1.5 -5.7,4.3 -8,4.2c-4.8,3 -10,4.5 -15.3,6.2s0.1,0.2 -0.3,0.3c-39.6,12.3 -83.8,0 -121.5,-13.7c-4.3,-1.5 -8.5,-3.3 -12.7,-4.9c-32.9,-12.3 -65.9,-27.1 -101.1,-31.3c-13.1,-1.5 -26.4,-1.4 -39.6,-2.3c-10.5,1.4 -20.8,3.8 -30.9,6.8c42.3,-3.6 84,7.8 123.6,21.2c33,11.1 65.1,26.1 99.3,33.2c36.1,7.5 67.6,9.2 99.2,-12.4c0,0 0,-1.4 1,-0.8c-0.2,0.3 -0.9,0.7 -1,0.8c-2.7,3.4 -6.8,5.9 -9.6,9.1c3.9,-2.5 8.1,-4.7 11.9,-7.5c4.2,-3.1 8.9,-6.9 12,-11.1c17.2,-23 7.7,-59.5 -9.1,-80.4l-2.3,1.3l0,0.2z" class="st11"/>
    <path id="svg_25" fill="#b8d8ed" d="m59.6,85.4c-6.5,-0.2 -13,0.5 -19.5,0.3l-3.6,1c53.8,-4.2 102.3,19.9 151.1,37.8c44.9,16.5 99.1,33.7 144.1,8.6c-5.2,2.2 -10.3,4.5 -15.8,6c-81.3,22.4 -171.7,-51 -256.3,-53.7z" class="st58"/>
    <path id="svg_26" fill="#5498ca" d="m336.6,131.7c0.1,-0.1 0.8,-0.5 1,-0.8c-0.9,-0.6 -0.9,0.8 -1,0.8z" class="st47"/>
   </g>
   <path id="svg_27" fill="#4d93c7" d="m256.4,81.8c-1.1,3.7 -2.9,7.3 -3.6,11.1c2.2,-3.2 4.3,-6.2 5.5,-9.9c0.7,7.8 -5.8,13.3 -11.2,17.7s-0.5,-0.3 -0.5,-0.3c-1.5,1.2 -1.7,2.3 -3.1,3.3c-12.7,8.7 -28.6,10.6 -43.6,8.8c-7.4,-0.9 -14.6,-3.5 -22,-4.6c3.4,1.2 6.7,3 10.1,4.2s8.4,3.1 12.4,4.2s5.6,1.7 8.8,2.3c20.5,3.4 34,-0.7 46.9,-16.6c-9.6,9.6 -23.5,14.8 -37.1,14.5c26.6,-2.9 56.3,-28.3 36.6,-55.8c2.2,4.9 3.4,10.1 2.8,15.5s-1.4,4 -2,5.7l0,-0.1z" class="st46"/>
   <g id="svg_28">
    <path id="svg_29" fill="#82b6dc" d="m54.9,81.5c43.4,-2 83.1,12.3 123.1,26.4c7.4,1 14.6,3.7 22,4.6c15.1,1.8 31,-0.1 43.6,-8.8c1.4,-1 1.6,-2.1 3.1,-3.3c2.3,-2.3 4.3,-4.8 6.2,-7.5c0.7,-3.8 2.5,-7.4 3.6,-11.1l0,-0.3c-1.6,2.8 -2.6,5.7 -4.6,8.3c-7.2,9.5 -19,12.8 -30.3,13.2c-30.7,1 -53.8,-12.8 -82.9,-18.6c-27.3,-5.4 -56.2,-6.3 -83.9,-2.9l0.1,0z" class="st54"/>
    <path id="svg_30" fill="#b7d7ec" d="m100.9,82.8c-1.1,0 -2.2,0 -3.3,0c6,1.4 12.4,1.3 18.6,2.3c32.8,5.2 63.6,22.5 97.5,20l-9.9,-0.2c-35.4,-4.7 -66.9,-20 -102.9,-22.1z" class="st7"/>
   </g>
   <path id="svg_31" fill="#1a5e8c" d="m252.9,92.9c-1.9,2.7 -3.9,5.2 -6.2,7.5c0,0 0.1,0.6 0.5,0.3c5.4,-4.4 11.9,-9.9 11.2,-17.7c-1.2,3.8 -3.3,6.8 -5.5,9.9z" class="st16"/>
   <path id="svg_32" fill="#fff" d="m235.6,21c-4.5,5.2 -0.4,7.6 4.6,5.5s6.5,-6.1 9,-8.1s5.1,-3.1 7.3,-5c-6.4,-1.4 -16.6,2.7 -20.8,7.7l-0.1,-0.1z" class="st9"/>
   <path id="svg_33" fill="#feffff" d="m263,21.6c0.3,3.1 6,1.8 7.8,1s4.3,-3.6 6,-4.6c3,-1.7 6.4,-2.7 9.6,-3.7c0,-1.3 -24.2,0.4 -23.4,7.3z" class="st53"/>
   <path id="svg_34" fill="#feffff" d="m221.9,21.3c-0.3,0.3 -0.6,0.6 -0.7,0.7c-1.3,2.2 -1.9,3.5 0.7,4.6s1.4,-0.1 1.8,0c0.7,0.2 0.7,1.5 2.3,1.3s2.9,-3.4 3.4,-4.6s1.9,-4.5 2,-4.7c0.2,-4 -8,1 -9.4,2.8l-0.1,-0.1z" class="st53"/>
   <path id="svg_35" fill="#fafdff" d="m317.7,28.4c-0.2,0 -1.6,-1.8 -2.9,-2c-9.4,-1.4 -3.7,9.7 2.9,2z" class="st39"/>
   <g id="svg_36">
    <path id="svg_37" fill="#daebf5" d="m236.6,3.4c-5.6,0.8 -11.6,3.4 -16.6,5.9c-2.4,2.8 -7,4 -7.8,8c1.6,4.7 7.6,0.9 9.8,4.1c1.4,-1.8 9.7,-6.8 9.4,-2.8s-1.7,4.2 -2,4.7l6.2,-2.3c4.3,-4.9 14.4,-9.1 20.8,-7.7c-2.2,2 -5,3.2 -7.3,5s-6.2,7 -9,8.1c-0.6,1.4 -2.7,10.4 0.5,9.8s3.5,-6.8 4.4,-8c3.5,-4.6 12.4,-9.8 17.9,-6.7c-0.7,-7 23.5,-8.7 23.4,-7.3c-3.2,1.1 -6.6,2.1 -9.6,3.7s-4.5,3.9 -6,4.6c-0.4,2.6 -3.2,5.2 -2,8c2,4.6 6.8,-1.3 8.1,-3.3s-0.7,-0.7 -0.2,-1.5s6.6,-4 7.2,-4.2c5.1,-2.3 12.2,-3.4 17.4,-1.1c-1.3,0.7 -6.4,5.7 -4.7,7s6.4,-4.9 9.1,-5.2s10.3,0.8 9,4.2c1.3,0.2 2.8,1.9 2.9,2c0.9,0.2 9.2,0.9 9.4,0.5c-21.7,-17.9 -52,-27.2 -79.9,-26.2s-8.2,0.3 -10.6,0.7l0.2,0z" class="st24"/>
    <path id="svg_38" fill="#feffff" d="m245.2,4.7c-5.2,-0.3 -17,2.8 -15.5,9.9c2,2.4 8.8,-5.8 10.9,-7s4.6,-2 6.8,-2.3c-0.3,-0.2 -2,-0.6 -2.3,-0.7l0.1,0.1z" class="st53"/>
    <path id="svg_39" fill="#fcfeff" d="m228.9,10.5c-5.4,-0.2 -12.9,1.7 -14.2,7.7c5.7,0.3 9,-5.8 14.2,-7.7z" class="st10"/>
    <path id="svg_40" fill="#f7fbfd" d="m279.4,8.3c-6.1,-0.5 -13.9,1.8 -18.1,6.4c7.3,-3.1 14.5,-5.4 22.6,-4.7c-0.5,-1.1 -3.6,-1.5 -4.6,-1.6l0.1,-0.1z" class="st56"/>
    <path id="svg_41" fill="#f5fafd" d="m294.7,16.1c-4.7,-0.3 -12.3,0.7 -15.5,4.1l20,-2.8c-0.3,-1 -3.7,-1.2 -4.6,-1.3l0.1,0z" class="st36"/>
   </g>
   <path id="svg_42" fill="#13375d" d="m284.8,27.8c-4.3,0.4 -5.7,3.5 -7.8,6.5c0.7,-0.2 2.5,-0.4 3.3,-0.3c0.6,-1.2 6.4,-3.8 7,-3.6c-0.1,0.4 0.2,1.2 0.2,1.3c0,-0.5 0.5,-0.2 0.7,-0.3l1,-2.8c-0.2,-1 -3.4,-0.9 -4.2,-0.8l-0.2,0z" class="st21"/>
   <path id="svg_43" fill="#3370a2" d="m265.2,87.1c-2.2,6.9 -4.8,9.6 -9.1,15c-12.9,15.9 -26.4,20 -46.9,16.6c0.6,0.9 3,1.7 4.1,2c7.6,2.1 17.2,3.7 24.9,2.3c9.6,-1.8 21.6,-8.2 27.7,-16c-7.6,6.7 -18.6,11.7 -28.5,13.7c9.3,-3.4 15.7,-7.8 22.6,-14.7c-1.1,-1.8 3,-3.8 3.3,-6c-1.3,1 -2.4,2.3 -3.6,3.4s0,0.8 -0.5,1c-0.6,-0.6 0.4,-0.9 0.5,-1c2.2,-4 5.5,-10 6.2,-14.5s0.3,-2 -0.7,-1.8z" class="st31"/>
   <path id="svg_44" fill="#205e8b" d="m249.3,44.4c15.2,8.4 21.1,26.2 16,42.7c0.9,-0.2 0.7,1.3 0.7,1.8c-0.7,4.5 -4,10.4 -6.2,14.5c1.2,-1.1 2.3,-2.4 3.6,-3.4c-0.2,2.2 -4.4,4.2 -3.3,6c2.2,-2.2 4.3,-4.3 6.2,-6.8c5.5,-10 7.8,-20.2 4.6,-31.4s-11.6,-18.8 -20.2,-25.6c-0.3,0.6 -1.2,1 -1.3,2.3l-0.1,-0.1z" class="st50"/>
   <path id="svg_45" fill="#11375b" d="m227.1,33.7c1.7,1.2 2.4,2.6 2.9,4.6c2.9,-3.9 2.4,-7.2 -2.9,-4.6z" class="st15"/>
   <path id="svg_46" fill="#0a4670" d="m254.2,36.6c1.4,0.5 2.9,1.2 4.2,2c0.2,-1.2 -0.3,-3.2 0,-4.2c-1.7,-0.4 -3.2,1.3 -4.2,2.3l0,-0.1z" class="st28"/>
   <path id="svg_47" fill="#aad1ea" d="m214.8,40.2c2.2,-0.1 2.4,1.6 1.6,3.6c0,2.6 -2,7.1 -4.9,7.8c0.2,1.9 -0.1,2 -2,2.6s-0.5,0.4 -1.3,0.3c-2,-0.2 -3.1,-2.1 -3.3,-3.9c-2.3,-2 -0.7,-6.2 -2.6,-7.8c-0.3,1.3 -0.6,3.2 -0.7,4.6s0.4,2.4 0.3,3.6c1.1,0.2 1,2.2 1.3,3.3c1,-1.2 2.6,2.3 3.7,2.9c5,2.8 4.9,-0.2 7.3,-2c1.8,-5.5 2.7,-10.1 7.8,-13.5c-2.1,-0.9 -4,-0.2 -5.5,-2.3s-0.7,-4.7 -2,-6.7c-1.1,3.1 -1.4,6.5 -3.3,9.3c1.4,0 1.6,-1.7 3.3,-1.8l0.3,0z" class="st25"/>
   <path id="svg_48" fill="#fcfeff" d="m205,50.6c0.2,1.8 1.3,3.7 3.3,3.9c-0.4,-1.1 1.2,-1.6 1.3,-0.3c1.8,-0.6 2.1,-0.7 2,-2.6c-0.2,-2.9 -3.3,-6.5 -3.4,-9.8c-1.8,2.3 -3.4,5.8 -3.1,8.8l-0.1,0z" class="st10"/>
   <path id="svg_49" fill="#f9fdfe" d="m214.8,40.2c-0.6,1.7 -3.5,4.1 -2.9,6s4.1,-1.3 4.6,-2.4c0.7,-2 0.6,-3.7 -1.6,-3.6l-0.1,0z" class="st2"/>
   <path id="svg_50" fill="#094872" d="m252.2,39.2c-0.7,0.9 -1.1,1.9 -1.6,2.9c8.5,6.8 17,14.7 20.2,25.6s1,21.5 -4.6,31.4c7.1,-9.4 5.8,-11.7 7.8,-22.5c-0.2,-9.2 -1.9,-16.6 -7.2,-24.1s-9.1,-10 -14.7,-13.4l0.1,0.1z" class="st55"/>
   <path id="svg_51" fill="#64a2d0" d="m279.9,75.3l-2.6,12.7c0.8,0.5 0.8,0 0.7,0.8c-1,5.1 -8.1,14.6 -12,18.1c-6.1,7.7 -18.1,14.1 -27.7,16c21.3,-1.5 42.5,-19.2 44,-41.2c0.2,-3.2 0.2,-7.8 -1,-10.4c0,2 0,11.1 -1,12.4s-0.4,0.3 -0.7,0c0.3,-1.9 1.1,-5.4 1,-7.2s-0.5,0.1 -0.7,-1.1l0,-0.1z" class="st1"/>
   <path id="svg_52" fill="#3875a7" d="m266.9,52.5c5.3,7.5 7,14.9 7.2,24.1c0.2,-1.3 2,-3.8 2.3,-6.4c0.4,-4.6 -1.3,-8.7 -1.6,-13.2l0,-0.3c-0.2,-0.3 -0.3,-0.5 -0.3,-0.7c-0.4,-0.6 -2.9,-3.9 -1.6,-4.2c-2.6,-4 -8.3,-9.4 -13.2,-9.4c2.3,3.3 6.6,6 7.3,10.1l-0.1,0z" class="st17"/>
   <path id="svg_53" fill="#85b5d8" d="m274.7,56.8l0,0.3c6.9,14.9 3.5,32.4 -5.9,45.4c4,-4 6.6,-9.2 8.5,-14.5l2.6,-12.7c-0.6,-7.1 -1.8,-12.5 -5.2,-18.6l0,0.1z" class="st49"/>
   <path id="svg_54" fill="#0a4871" d="m280.2,34c2.6,0.2 5,0.9 7.5,1.6c-1.2,-2.1 -0.3,-2.3 -0.3,-3.9s-0.3,-0.9 -0.2,-1.3c-0.6,-0.2 -6.4,2.4 -7,3.6z" class="st29"/>
   <path id="svg_55" fill="#1b5a86" d="m307.2,42.8c-0.2,1 -0.4,0.5 0.2,1.3c1.5,2.1 7,6.2 9.3,9c6.2,7.4 11.7,17.4 14.7,26.5c5.3,16.3 6.9,33.4 -0.7,49.3c2.8,-3.5 5.2,-8.9 6.5,-13.2c6.1,-20.6 1.4,-43.5 -12.4,-59.9c-1.4,-1.7 -3.6,-4 -5.2,-5.5s-5.9,-5.2 -6.4,-5.2s-0.2,1 -1,1s-2.8,-2.1 -3.7,-2.6s-0.9,-0.4 -1.3,-0.7z" class="st5"/>
   <path id="svg_56" fill="#13385e" d="m294.5,37.6c4.9,0.4 8.6,3 12.7,5.2s0.9,0.4 1.3,0.7c0.2,-0.7 1.1,0.2 0.7,-0.8s-10.3,-6.9 -10.4,-7.5c-0.3,-1.9 3.2,-2.1 4.9,-1.1c-1.1,-2.2 0.2,-4.2 1.3,-6c-2,-2.4 -8.3,9.1 -10.4,9.6l-0.1,-0.1z" class="st37"/>
   <path id="svg_57" fill="#11527e" d="m319.6,50.3c1.6,1.5 3.8,3.8 5.2,5.5c0.6,0.3 0.8,-0.7 1.3,-0.5s6.7,8.9 7.5,10.1c10.1,16.3 12.6,32.8 6.8,51.3l-3.1,8.1c14.1,-18.4 12.5,-38.2 1.8,-57.8c-7.2,-13.2 -17.1,-21.9 -29.6,-29.8c-1,0 -1.3,0 -2.3,-0.3c1.7,4.1 11.1,8.9 12.9,12s0.2,1.1 -0.5,1.3l0,0.1z" class="st44"/>
   <path id="svg_58" fill="#0f517c" d="m313.4,36.3c3.6,1.6 6.9,2.5 10.1,4.9c0.6,-1.5 2.3,-0.3 3.4,0.3c21.5,11.5 28.3,42.7 23.3,64.6s-1,1.2 -1.3,1.1c-0.1,1.1 -0.3,2.5 -0.7,3.4l0.8,-1.1l0.5,1.6c7.6,-18.9 5.2,-42.5 -6.5,-59.3s-15.9,-17.7 -29.6,-15.6l0,0.1z" class="st35"/>
   <path id="svg_59" fill="#1c5c89" d="m323.5,41.1c18.7,13.6 28,43.9 25.4,66.1c0.3,0 1.3,-1.1 1.3,-1.1c5,-22 -1.8,-53.1 -23.3,-64.6c-1.2,-0.6 -2.8,-1.8 -3.4,-0.3l0,-0.1z" class="st42"/>
   <path id="svg_60" fill="#0b4972" d="m324.8,55.8c13.8,16.4 18.5,39.3 12.4,59.9l3.3,1c5.8,-18.5 3.2,-34.9 -6.8,-51.3s-6.9,-9.9 -7.5,-10.1s-0.7,0.7 -1.3,0.5l-0.1,0z" class="st45"/>
   <path id="svg_61" fill="#0b4c76" d="m308.5,43.4c1,0.5 3.5,2.6 3.7,2.6c0.8,0 0.8,-1 1,-1c0.4,0 5.6,4.5 6.4,5.2c0.7,-0.2 0.8,-0.7 0.5,-1.3c-1.7,-3.1 -11.1,-7.9 -12.9,-12c-1.8,-0.6 -2.7,-2.5 -3.6,-2.9c-1.7,-0.9 -5.2,-0.7 -4.9,1.1s9.8,6.1 10.4,7.5s-0.5,0 -0.7,0.8l0.1,0z" class="st13"/>
   <path id="svg_62" fill="#4b92c7" d="m274,76.6c-2,10.8 -0.7,13 -7.8,22.5c-1.9,2.5 -4,4.6 -6.2,6.8c-6.9,6.9 -13.4,11.3 -22.6,14.7c9.8,-2 20.9,-7 28.5,-13.7c4,-3.5 11,-13 12,-18.1s0.2,-0.3 -0.7,-0.8c-1.9,5.3 -4.5,10.5 -8.5,14.5c9.3,-13 12.8,-30.5 5.9,-45.4c0.3,4.5 2,8.6 1.6,13.2s-2,5.1 -2.3,6.4l0.1,-0.1z" class="st59"/>
   <path id="svg_63" fill="#205e8b" d="m259.7,103.3c0,0 -1.1,0.4 -0.5,1c0.5,-0.2 0.4,-0.9 0.5,-1z" class="st50"/>
   <g id="svg_64">
    <path id="svg_65" fill="#1c5b88" d="m280.2,34c-0.7,0 -2.5,0.1 -3.3,0.3c-3.9,5.5 -3.9,9.3 -12.5,7.5s-4.1,-2.1 -6,-3.3s-2.8,-1.5 -4.2,-2c-0.9,0.9 -1.2,1.6 -2,2.6c5.5,3.3 10.9,8.1 14.7,13.4c-0.7,-4.1 -5.1,-6.8 -7.3,-10.1c4.9,0 10.6,5.5 13.2,9.4s1.8,3.2 1.6,4.2c0,0.1 0.2,0.4 0.3,0.7c3.4,6.1 4.6,11.5 5.2,18.6c0.1,1.3 0.6,1 0.7,1.1c0.1,1.8 -0.6,5.3 -1,7.2c0.2,0.3 0.5,0.3 0.7,0c0.9,-1.3 0.9,-10.3 1,-12.4c1.1,2.7 1.2,7.3 1,10.4c-1.5,22 -22.7,39.7 -44,41.2c-7.7,1.5 -17.3,-0.2 -24.9,-2.3c-1,-0.3 -3.4,-1 -4.1,-2c-3.2,-0.5 -5.7,-1.4 -8.8,-2.3l-1.6,4.9c37.7,13.6 81.9,26 121.5,13.7c-11.9,2.9 -23.9,4.8 -36.1,4.7c12.2,-3.6 23.5,-9.5 31.6,-19.5c16.6,-20.6 16.1,-49.2 -2.9,-68.1c-6.4,-6.3 -14.1,-9.3 -21.2,-14.2s-2.8,-0.3 -3.9,-2.3c-2.4,-0.7 -4.9,-1.4 -7.5,-1.6l-0.2,0.2z" class="st14"/>
    <g id="svg_66">
     <path id="svg_67" fill="#3f8bc3" d="m284.1,40.8c24.4,15.9 27.4,51.7 11.7,74.9c1.4,-1.7 3,-3.1 4.2,-5c13.7,-21 10.3,-50 -8.8,-66.4c26.6,18.5 23.2,60.5 -2,79c-4.3,4.2 -8.8,8 -14,10.9c35.3,-8.7 54.1,-44.9 31.3,-76.7c-0.4,0 -0.3,0.3 -0.3,0.7c8.8,12.7 10,31.6 1.8,44.9c4.8,-10.9 5.4,-23.5 2.1,-35c-0.6,-2.1 -3.9,-8.8 -3.9,-9.9c-0.4,-0.5 -2.1,-1.8 -1.3,-2.6c-4.2,-5.3 -7.2,-8.2 -12.7,-12l-8.1,-2.6l0,-0.2z" class="st0"/>
     <path id="svg_68" fill="#418bc3" d="m285.8,107.6c11.2,-12.9 10.4,-33 3.3,-47.9c-2,-2.9 -4.3,-5.5 -7.2,-7.7c3.1,7.4 6.4,15.7 6.8,23.8c1.1,19.7 -10.4,37.8 -27,47.5c11.1,-3.5 20.4,-11.6 26.5,-21.3c-0.4,1.9 -1.5,3.9 -2.4,5.5l0,0.1z" class="st40"/>
     <path id="svg_69" fill="#428dc4" d="m268.2,125.2c-6.3,3.1 -12.2,6.3 -19.4,7.5c35.6,2.3 64.4,-38.3 42.5,-69.4c12.7,25.7 0.4,50.2 -23.1,61.9z" class="st3"/>
     <path id="svg_70" fill="#87b4d6" d="m285.8,107.6c-4.2,7.3 -10.9,12.8 -17.6,17.6c23.5,-11.7 35.8,-36.2 23.1,-61.9s-1.3,-2.2 -2.3,-3.6c7.2,14.8 7.9,34.9 -3.3,47.9l0.1,0z" class="st57"/>
     <path id="svg_71" fill="#84b3d6" d="m295.8,115.7c-2.1,2.6 -4.1,5.1 -6.5,7.5c25.1,-18.5 28.6,-60.5 2,-79c19.1,16.5 22.5,45.4 8.8,66.4c-1.2,1.9 -2.9,3.3 -4.2,5l-0.1,0.1z" class="st18"/>
     <path id="svg_72" fill="#2c719f" d="m284.1,40.8l8.1,2.6c-1.9,-1.3 -4.3,-3.2 -6.4,-4.2s-12,-4.6 -8.5,-1.6s5.2,2.3 6.7,3.3l0.1,-0.1z" class="st4"/>
     <path id="svg_73" fill="#2f72ac" d="m273.2,43.7l6.2,7.2c-0.1,-1.7 -2.4,-3.3 -3.1,-4.4s1,-0.2 0.7,-1s-3.3,-1.2 -3.7,-1.8l-0.1,0z" class="st19"/>
     <path id="svg_74" fill="#5f9fce" d="m274.4,56.1c0.2,-1 -1.1,-3.4 -1.6,-4.2c-1.3,0.3 1.3,3.6 1.6,4.2z" class="st51"/>
     <path id="svg_75" fill="#81b1d5" d="m306.3,58.1c0,-0.3 -0.1,-0.7 0.3,-0.7c-0.5,-0.7 -1.1,-1.3 -1.6,-2c-0.8,0.8 0.9,2.1 1.3,2.6l0,0.1z" class="st26"/>
     <path id="svg_76" fill="#81b1d5" d="m306.3,58.1c0,1.2 3.3,7.9 3.9,9.9c3.2,11.5 2.7,24.1 -2.1,35c8.2,-13.3 7,-32.3 -1.8,-44.9z" class="st26"/>
    </g>
   </g>
  </g>
 </g>
</svg>